<svg width="18" height="18" viewBox="0 0 18 18" fill="none" xmlns="http://www.w3.org/2000/svg">
<path d="M2.62575 8.69399C2.57676 8.6463 2.53783 8.58927 2.51124 8.52628C2.48466 8.46329 2.47096 8.39562 2.47096 8.32724C2.47096 8.25887 2.48466 8.1912 2.51124 8.12821C2.53783 8.06522 2.57676 8.00819 2.62575 7.96049C2.72616 7.86271 2.86078 7.80798 3.00094 7.80798C3.1411 7.80798 3.27572 7.86271 3.37612 7.96049L8.99887 13.4426L14.6227 7.96049C14.6733 7.91114 14.733 7.87223 14.7986 7.84598C14.8641 7.81972 14.9342 7.80664 15.0049 7.80747C15.0755 7.80831 15.1452 7.82305 15.2102 7.85085C15.2751 7.87865 15.3339 7.91896 15.3832 7.96949C15.4303 8.01763 15.4674 8.07456 15.4924 8.13704C15.5174 8.19952 15.5298 8.26632 15.529 8.33361C15.5282 8.4009 15.5141 8.46737 15.4875 8.52921C15.4609 8.59105 15.4225 8.64704 15.3742 8.69399L9.3915 14.5237C9.28645 14.6261 9.14556 14.6834 8.99887 14.6834C8.85218 14.6834 8.71129 14.6261 8.60625 14.5237L2.62575 8.69399V8.69399ZM2.62575 4.19399C2.57676 4.1463 2.53783 4.08927 2.51124 4.02628C2.48466 3.96329 2.47096 3.89561 2.47096 3.82724C2.47096 3.75887 2.48466 3.69119 2.51124 3.6282C2.53783 3.56521 2.57676 3.50819 2.62575 3.46049C2.72616 3.36271 2.86078 3.30798 3.00094 3.30798C3.14109 3.30798 3.27572 3.36271 3.37612 3.46049L8.99887 8.94262L14.6227 3.46049C14.6733 3.41114 14.733 3.37223 14.7986 3.34597C14.8641 3.31972 14.9342 3.30664 15.0049 3.30747C15.0755 3.30831 15.1452 3.32305 15.2102 3.35085C15.2751 3.37865 15.3339 3.41896 15.3832 3.46949C15.4303 3.51762 15.4674 3.57456 15.4924 3.63704C15.5174 3.69952 15.5298 3.76632 15.529 3.83361C15.5281 3.9009 15.5141 3.96737 15.4875 4.02921C15.4609 4.09105 15.4225 4.14704 15.3742 4.19399L9.3915 10.0237C9.28645 10.1261 9.14556 10.1834 8.99887 10.1834C8.85218 10.1834 8.71129 10.1261 8.60625 10.0237L2.62575 4.19399V4.19399Z" fill="#B9D9AC"/>
</svg>
